<?xml version="1.0" encoding="UTF-8" standalone="no"?>
<!-- Created with Inkscape (http://www.inkscape.org/) -->

<svg
   xmlns:dc="http://purl.org/dc/elements/1.1/"
   xmlns:cc="http://creativecommons.org/ns#"
   xmlns:rdf="http://www.w3.org/1999/02/22-rdf-syntax-ns#"
   xmlns:svg="http://www.w3.org/2000/svg"
   xmlns="http://www.w3.org/2000/svg"
   xmlns:sodipodi="http://sodipodi.sourceforge.net/DTD/sodipodi-0.dtd"
   xmlns:inkscape="http://www.inkscape.org/namespaces/inkscape"
   width="40.638046"
   height="40.639931"
   viewBox="0 0 10.75215 10.752648"
   version="1.1"
   id="svg5324"
   inkscape:version="0.92.0 r15299"
   sodipodi:docname="small-dark.svg"
   inkscape:export-filename="/home/tbekolay/Code/nengo.github.io/_static/base-favicon.png"
   inkscape:export-xdpi="5.9468236"
   inkscape:export-ydpi="5.9468236">
  <defs
     id="defs5318">
    <clipPath
       id="p594bf549dd">
      <rect
         height="613.79999"
         width="334.79999"
         x="54"
         y="79.199997"
         id="rect409" />
    </clipPath>
    <clipPath
       id="clipPath6004">
      <rect
         height="613.79999"
         width="334.79999"
         x="54"
         y="79.199997"
         id="rect6002" />
    </clipPath>
    <clipPath
       id="clipPath6008">
      <rect
         height="613.79999"
         width="334.79999"
         x="54"
         y="79.199997"
         id="rect6006" />
    </clipPath>
    <clipPath
       id="clipPath6012">
      <rect
         height="613.79999"
         width="334.79999"
         x="54"
         y="79.199997"
         id="rect6010" />
    </clipPath>
  </defs>
  <sodipodi:namedview
     id="base"
     pagecolor="#ffffff"
     bordercolor="#666666"
     borderopacity="1.0"
     inkscape:pageopacity="0.0"
     inkscape:pageshadow="2"
     inkscape:zoom="4.0000001"
     inkscape:cx="-45.405788"
     inkscape:cy="47.561499"
     inkscape:document-units="mm"
     inkscape:current-layer="layer1"
     showgrid="false"
     fit-margin-top="4.45213"
     fit-margin-left="4.32"
     fit-margin-right="4.32"
     fit-margin-bottom="4.45213"
     inkscape:window-width="1916"
     inkscape:window-height="1033"
     inkscape:window-x="1920"
     inkscape:window-y="22"
     inkscape:window-maximized="0"
     units="px"
     showguides="false"
     inkscape:lockguides="true" />
  <metadata
     id="metadata5321">
    <rdf:RDF>
      <cc:Work
         rdf:about="">
        <dc:format>image/svg+xml</dc:format>
        <dc:type
           rdf:resource="http://purl.org/dc/dcmitype/StillImage" />
        <dc:title></dc:title>
      </cc:Work>
    </rdf:RDF>
  </metadata>
  <g
     inkscape:label="Layer 1"
     inkscape:groupmode="layer"
     id="layer1"
     transform="translate(151.91788,-157.1969)">
    <g
       id="g4503">
      <path
         id="path4566"
         d="m -146.38365,164.54063 -0.0865,-0.0326 c -5.1e-4,-1.2e-4 -0.001,-3.8e-4 -0.002,-5e-4 l -0.0961,-0.0359 c -3.8e-4,-1.3e-4 -8.9e-4,-3.8e-4 -0.001,-5.1e-4 l -0.0961,-0.0354 c -3.8e-4,-1.2e-4 -8.8e-4,-3.8e-4 -0.001,-5e-4 l -0.0961,-0.035 c -3.8e-4,-1.2e-4 -6.3e-4,-3.7e-4 -0.001,-5e-4 l -0.0961,-0.0347 c -3.8e-4,-1.3e-4 -8.8e-4,-3.8e-4 -10e-4,-5.1e-4 l -0.0961,-0.0344 c -3.8e-4,-1e-4 -6.3e-4,-1.2e-4 -0.001,-2.5e-4 l -0.0961,-0.0342 c -3.8e-4,-1.3e-4 -6.3e-4,-3.8e-4 -0.001,-5.1e-4 l -0.0961,-0.0337 c -2.5e-4,-1.2e-4 -5e-4,-3.8e-4 -7.5e-4,-5e-4 l -0.0961,-0.0334 c -3.8e-4,-1.1e-4 -6.3e-4,-1.3e-4 -0.001,-2.6e-4 l -0.0961,-0.0334 c -2.5e-4,-1e-4 -5e-4,-1.2e-4 -7.6e-4,-2.5e-4 l -0.0961,-0.0332 c -3.7e-4,-1e-4 -6.3e-4,-1.3e-4 -10e-4,-2.5e-4 l -0.0961,-0.0327 c -2.6e-4,-1e-4 -5.1e-4,-1.3e-4 -7.6e-4,-2.5e-4 l -0.0961,-0.0327 c -2.5e-4,-1e-4 -5.1e-4,-1.3e-4 -7.6e-4,-2.6e-4 l -0.0961,-0.0325 -5e-4,-2.5e-4 -0.0961,-0.0322 c -2.5e-4,-10e-5 -5.1e-4,-1.3e-4 -7.6e-4,-2.5e-4 l -0.0961,-0.0319 c -2.5e-4,-10e-5 -5.1e-4,-1.3e-4 -7.6e-4,-2.6e-4 l -0.0961,-0.0317 -5e-4,-2.6e-4 -0.0961,-0.0314 c -2.5e-4,-1e-4 -5.1e-4,-1.3e-4 -7.6e-4,-2.5e-4 l -0.0961,-0.0315 -5e-4,-2.5e-4 -0.0961,-0.0312 -5e-4,-2.5e-4 -0.0961,-0.031 c -2.6e-4,-1e-4 -5.1e-4,-1.3e-4 -7.6e-4,-2.6e-4 l -0.0961,-0.0309 -5e-4,-2.6e-4 -0.0961,-0.0307 -5.1e-4,-2.6e-4 -0.0961,-0.0304 -5e-4,-2.6e-4 -0.0166,-0.005 v 0.82277 l 0.0666,0.0215 0.0953,0.0307 0.0956,0.0312 0.0954,0.0312 0.0955,0.0315 0.0954,0.0314 0.0954,0.0317 0.0953,0.032 0.0954,0.0321 0.0954,0.0325 0.0953,0.0325 0.095,0.0327 0.0954,0.0332 0.0951,0.0332 0.0951,0.0334 0.0951,0.034 0.0948,0.0339 0.0951,0.0344 0.0948,0.0347 0.0948,0.0349 0.0946,0.0354 0.0948,0.0357 0.0943,0.0361 0.0946,0.0365 0.0943,0.0369 0.0941,0.0376 0.0941,0.0379 0.0939,0.0386 0.0936,0.0391 0.0933,0.0399 0.0931,0.0406 0.0926,0.0414 0.0924,0.0423 0.0919,0.0434 0.0911,0.0445 0.0904,0.0459 0.0896,0.047 0.0882,0.049 0.0864,0.0507 0.0837,0.053 0.0802,0.0557 0.0741,0.0577 0.0632,0.0587 0.01,0.0117 0.25087,0.54975 -0.25806,-0.73427 -0.0481,-0.0876 -0.076,-0.10777 -0.0817,-0.10052 -0.0849,-0.0954 -0.0875,-0.0909 -0.0891,-0.0874 -0.0901,-0.0847 -0.0908,-0.0825 -0.0916,-0.0802 -0.0922,-0.0785 -0.0928,-0.077 -0.0929,-0.0756 -0.0934,-0.0745 -0.0933,-0.073 -0.0939,-0.0723 -0.0939,-0.0713 -0.0941,-0.0706 -0.094,-0.0696 z"
         style="color:#000000;font-style:normal;font-variant:normal;font-weight:normal;font-stretch:normal;font-size:medium;line-height:normal;font-family:sans-serif;font-variant-ligatures:normal;font-variant-position:normal;font-variant-caps:normal;font-variant-numeric:normal;font-variant-alternates:normal;font-feature-settings:normal;text-indent:0;text-align:start;text-decoration:none;text-decoration-line:none;text-decoration-style:solid;text-decoration-color:#000000;letter-spacing:normal;word-spacing:normal;text-transform:none;writing-mode:lr-tb;direction:ltr;text-orientation:mixed;dominant-baseline:auto;baseline-shift:baseline;text-anchor:start;white-space:normal;shape-padding:0;clip-rule:nonzero;display:inline;overflow:visible;visibility:visible;opacity:1;isolation:auto;mix-blend-mode:normal;color-interpolation:sRGB;color-interpolation-filters:linearRGB;solid-color:#000000;solid-opacity:1;vector-effect:none;fill:#ffffff;fill-opacity:0.49803922;fill-rule:nonzero;stroke:none;stroke-width:0.78361219;stroke-linecap:butt;stroke-linejoin:round;stroke-miterlimit:100;stroke-dasharray:none;stroke-dashoffset:0;stroke-opacity:1;color-rendering:auto;image-rendering:auto;shape-rendering:auto;text-rendering:auto;enable-background:accumulate"
         inkscape:connector-curvature="0" />
      <path
         id="path4571"
         d="m -146.75973,163.31989 -0.0137,-0.009 c -3.8e-4,-2.5e-4 -6.3e-4,-5e-4 -0.001,-7.6e-4 l -0.0961,-0.0646 c -3.8e-4,-2.6e-4 -8.8e-4,-5.1e-4 -0.001,-7.6e-4 l -0.0961,-0.0641 c -3.8e-4,-2.5e-4 -6.3e-4,-5.1e-4 -10e-4,-7.6e-4 l -0.0961,-0.0633 c -3.8e-4,-2.6e-4 -8.8e-4,-5.1e-4 -0.001,-7.6e-4 l -0.0961,-0.0632 c -3.8e-4,-2.5e-4 -6.3e-4,-5.1e-4 -0.001,-7.6e-4 l -0.0961,-0.0626 c -3.8e-4,-1.2e-4 -6.4e-4,-3.7e-4 -0.001,-5e-4 l -0.0961,-0.0624 c -3.8e-4,-1.3e-4 -6.4e-4,-3.8e-4 -0.001,-5.1e-4 l -0.0958,-0.0619 c -3.8e-4,-2.5e-4 -6.3e-4,-5e-4 -0.001,-7.5e-4 l -0.0961,-0.0614 c -3.8e-4,-1.3e-4 -6.3e-4,-3.8e-4 -0.001,-5e-4 l -0.0961,-0.0611 c -3.8e-4,-1.2e-4 -6.3e-4,-3.8e-4 -0.001,-5e-4 l -0.0959,-0.0609 c -3.8e-4,-1.3e-4 -6.3e-4,-3.8e-4 -0.001,-5.1e-4 l -0.0961,-0.0604 c -3.8e-4,-1.3e-4 -6.3e-4,-3.8e-4 -0.001,-5.1e-4 l -0.0958,-0.06 c -3.8e-4,-1.3e-4 -6.3e-4,-3.8e-4 -0.001,-5e-4 l -0.0961,-0.0596 c -2.5e-4,-1.2e-4 -5e-4,-3.8e-4 -7.6e-4,-5e-4 l -0.0961,-0.0594 c -2.6e-4,-1.3e-4 -5.1e-4,-3.8e-4 -7.6e-4,-5.1e-4 l -0.0961,-0.0589 c -3.8e-4,-1.2e-4 -6.3e-4,-3.8e-4 -0.001,-5e-4 l -0.0961,-0.0587 c -2.5e-4,-1.3e-4 -5e-4,-3.8e-4 -7.6e-4,-5.1e-4 l -0.0956,-0.058 c -2.5e-4,-1.2e-4 -5e-4,-3.8e-4 -7.6e-4,-5e-4 l -0.0961,-0.0579 c -2.6e-4,-1.2e-4 -5.1e-4,-3.7e-4 -7.6e-4,-5e-4 l -0.0961,-0.0579 c -2.5e-4,-1e-4 -5.1e-4,-1.2e-4 -7.6e-4,-2.5e-4 l -0.0961,-0.0575 c -2.5e-4,-1.3e-4 -5e-4,-3.8e-4 -7.5e-4,-5.1e-4 l -0.003,-0.002 v 0.91506 l 0.0782,0.0477 0.0954,0.0585 0.0951,0.0589 0.0953,0.0592 0.0951,0.0594 0.0954,0.0597 0.0951,0.0602 0.0951,0.0607 0.0951,0.0607 0.0951,0.0614 0.0951,0.0616 0.0951,0.0619 0.095,0.0624 0.0949,0.0629 0.0951,0.0633 0.0948,0.0637 0.0948,0.0641 0.0948,0.0646 0.0948,0.0654 0.0946,0.0656 0.0946,0.0664 0.0946,0.0669 0.0946,0.0676 0.0944,0.0681 0.0944,0.0688 0.0941,0.0696 0.0941,0.0706 0.0939,0.0713 0.0939,0.0723 0.0933,0.073 0.0934,0.0745 0.0929,0.0756 0.0928,0.077 0.0922,0.0785 0.0916,0.0802 0.0908,0.0825 0.0901,0.0847 0.0892,0.0874 0.0874,0.0909 0.0849,0.0954 0.0817,0.10052 0.076,0.10776 0.0481,0.0877 0.25747,0.7327 -0.261,-0.876 -0.0666,-0.15878 -0.0837,-0.15996 -0.0871,-0.14761 -0.0894,-0.13892 -0.0904,-0.13272 -0.0916,-0.12776 -0.0921,-0.1241 -0.0926,-0.12083 -0.0931,-0.11815 -0.0933,-0.11561 -0.0936,-0.11371 -0.0939,-0.11163 -0.0939,-0.11025 -0.0944,-0.10822 -0.0941,-0.10699 -0.0943,-0.10568 -0.0944,-0.1045 -0.0946,-0.10307 -0.0946,-0.10228 -0.0947,-0.10104 -0.0946,-0.1 z"
         style="color:#000000;font-style:normal;font-variant:normal;font-weight:normal;font-stretch:normal;font-size:medium;line-height:normal;font-family:sans-serif;font-variant-ligatures:normal;font-variant-position:normal;font-variant-caps:normal;font-variant-numeric:normal;font-variant-alternates:normal;font-feature-settings:normal;text-indent:0;text-align:start;text-decoration:none;text-decoration-line:none;text-decoration-style:solid;text-decoration-color:#000000;letter-spacing:normal;word-spacing:normal;text-transform:none;writing-mode:lr-tb;direction:ltr;text-orientation:mixed;dominant-baseline:auto;baseline-shift:baseline;text-anchor:start;white-space:normal;shape-padding:0;clip-rule:nonzero;display:inline;overflow:visible;visibility:visible;opacity:1;isolation:auto;mix-blend-mode:normal;color-interpolation:sRGB;color-interpolation-filters:linearRGB;solid-color:#000000;solid-opacity:1;vector-effect:none;fill:#ffffff;fill-opacity:0.49803922;fill-rule:nonzero;stroke:none;stroke-width:0.78361219;stroke-linecap:butt;stroke-linejoin:round;stroke-miterlimit:100;stroke-dasharray:none;stroke-dashoffset:0;stroke-opacity:1;color-rendering:auto;image-rendering:auto;shape-rendering:auto;text-rendering:auto;enable-background:accumulate"
         inkscape:connector-curvature="0" />
      <path
         id="path4533"
         d="m -148.71669,161.44373 0.0227,0.0201 0.0951,0.0847 0.0948,0.0854 0.0951,0.0859 0.0951,0.0865 0.0951,0.0871 0.095,0.0877 0.0949,0.0884 0.0951,0.0892 0.095,0.0896 0.0949,0.0904 0.0951,0.0909 0.0948,0.0918 0.0948,0.0924 0.0951,0.0933 0.0948,0.0939 0.0948,0.0948 0.0948,0.0954 0.0948,0.0965 0.0948,0.0971 0.0946,0.098 0.0948,0.0991 0.0946,0.1 0.0946,0.10104 0.0946,0.10228 0.0946,0.10307 0.0944,0.1045 0.0943,0.10568 0.0941,0.10698 0.0944,0.10823 0.0939,0.11025 0.0939,0.11163 0.0936,0.11371 0.0933,0.1156 0.0931,0.11816 0.0926,0.12083 0.0921,0.1241 0.0916,0.12775 0.0904,0.13272 0.0894,0.13893 0.0871,0.14761 0.0837,0.15995 0.0666,0.15878 0.26152,0.87764 -0.26374,-1.03021 -0.0785,-0.24095 -0.0889,-0.22586 -0.0912,-0.20776 -0.0921,-0.19588 -0.0929,-0.18771 -0.0933,-0.18099 -0.0939,-0.17563 -0.0939,-0.17132 -0.0941,-0.1674 -0.0944,-0.1642 -0.0943,-0.161 -0.0946,-0.15846 -0.0946,-0.15551 -0.0946,-0.15356 -0.0948,-0.15107 -0.0946,-0.14905 -0.0948,-0.14708 -0.0946,-0.14513 -0.0948,-0.14337 -0.0948,-0.14167 -0.002,-0.003 -0.0691,-0.0689 c -3.8e-4,-3.8e-4 -6.4e-4,-8.9e-4 -10e-4,-10e-4 l -0.0961,-0.0951 -0.001,-0.001 -0.0961,-0.0943 c -3.7e-4,-3.8e-4 -8.8e-4,-6.4e-4 -0.001,-0.001 l -0.0958,-0.0936 -0.001,-0.001 -0.0961,-0.0926 c -3.7e-4,-3.8e-4 -6.3e-4,-8.9e-4 -0.001,-0.001 l -0.0961,-0.0921 c -3.8e-4,-3.8e-4 -8.9e-4,-6.3e-4 -0.001,-0.001 l -0.0961,-0.0914 -10e-4,-0.001 -0.0961,-0.0907 -0.001,-0.001 -0.0961,-0.0901 -0.001,-0.001 -0.0961,-0.0894 c -3.8e-4,-3.8e-4 -8.9e-4,-6.4e-4 -0.001,-0.001 l -0.0958,-0.0886 c -3.8e-4,-3.8e-4 -8.9e-4,-6.3e-4 -0.001,-0.001 l -0.0961,-0.0879 -0.001,-0.001 -0.0961,-0.0874 -0.001,-10e-4 -0.0961,-0.0869 c -3.8e-4,-2.5e-4 -6.3e-4,-5e-4 -0.001,-7.6e-4 l -0.0961,-0.0862 -10e-4,-0.001 -0.0961,-0.0857 c -3.8e-4,-2.5e-4 -6.3e-4,-5e-4 -0.001,-7.5e-4 l -0.0961,-0.0852 -0.001,-10e-4 -0.0959,-0.0844 c -3.8e-4,-2.6e-4 -6.4e-4,-5.1e-4 -10e-4,-7.6e-4 l -0.0961,-0.0839 c -3.8e-4,-2.5e-4 -6.4e-4,-5.1e-4 -0.001,-7.6e-4 l -0.0961,-0.0835 -0.001,-0.001 -0.0961,-0.0828 c -3.8e-4,-2.5e-4 -6.3e-4,-5e-4 -0.001,-7.5e-4 l -0.0566,-0.0486 z"
         style="color:#000000;font-style:normal;font-variant:normal;font-weight:normal;font-stretch:normal;font-size:medium;line-height:normal;font-family:sans-serif;font-variant-ligatures:normal;font-variant-position:normal;font-variant-caps:normal;font-variant-numeric:normal;font-variant-alternates:normal;font-feature-settings:normal;text-indent:0;text-align:start;text-decoration:none;text-decoration-line:none;text-decoration-style:solid;text-decoration-color:#000000;letter-spacing:normal;word-spacing:normal;text-transform:none;writing-mode:lr-tb;direction:ltr;text-orientation:mixed;dominant-baseline:auto;baseline-shift:baseline;text-anchor:start;white-space:normal;shape-padding:0;clip-rule:nonzero;display:inline;overflow:visible;visibility:visible;opacity:1;isolation:auto;mix-blend-mode:normal;color-interpolation:sRGB;color-interpolation-filters:linearRGB;solid-color:#000000;solid-opacity:1;vector-effect:none;fill:#ffffff;fill-opacity:0.49803922;fill-rule:nonzero;stroke:none;stroke-width:0.78361219;stroke-linecap:butt;stroke-linejoin:round;stroke-miterlimit:100;stroke-dasharray:none;stroke-dashoffset:0;stroke-opacity:1;color-rendering:auto;image-rendering:auto;shape-rendering:auto;text-rendering:auto;enable-background:accumulate"
         inkscape:connector-curvature="0" />
      <path
         sodipodi:nodetypes="ssssccssssssssccccccccccccccccccccccccccccccccccccccccccccccccsscsssssssscccccccccccccccccccccccccccccccccccccccccccccccccccccccccccccccccccccccccccccccccccccccccccs"
         inkscape:connector-curvature="0"
         id="path4546"
         d="m -150.62289,158.37486 c -0.10135,0 -0.15199,0.0468 -0.15199,0.14036 v 0.59639 c 0,0.0935 0.0506,0.1403 0.15199,0.1403 h 0.8888 v 6.64236 h -0.8888 c -0.10135,0 -0.15199,0.0468 -0.15199,0.14036 v 0.59639 c 0,0.0935 0.0506,0.1403 0.15199,0.1403 h 2.80663 c 0.10135,0 0.15205,-0.0468 0.15205,-0.1403 v -0.59639 c 0,-0.0935 -0.0507,-0.14036 -0.15205,-0.14036 h -0.90043 v -5.75356 -0.56719 l 0.0782,0.0931 0.0948,0.11443 0.0948,0.11541 0.0951,0.11639 0.0948,0.11737 0.0951,0.11861 0.0948,0.11986 0.0949,0.12083 0.095,0.12207 0.0949,0.12338 0.0948,0.12429 0.0951,0.1258 0.0948,0.12704 0.0948,0.12827 0.0951,0.12952 0.0948,0.13102 0.0948,0.13246 0.0948,0.1337 0.0948,0.13527 0.0951,0.1369 0.0948,0.1382 0.0949,0.14017 0.0948,0.14166 0.0948,0.14337 0.0946,0.14513 0.0948,0.14709 0.0946,0.14905 0.0948,0.15107 0.0946,0.15355 0.0946,0.15552 0.0946,0.15845 0.0943,0.161 0.0944,0.1642 0.0941,0.1674 0.0939,0.17132 0.0939,0.17563 0.0933,0.18099 0.0929,0.18772 0.0921,0.19587 0.0912,0.20777 0.0889,0.22586 0.0785,0.24094 0.26375,1.03021 h 0.15531 0.23389 0.63147 c 0.10135,0 0.15205,-0.0468 0.15205,-0.14036 V 159.252 h 0.90043 c 0.0935,0 0.14036,-0.0468 0.14036,-0.14036 v -0.59639 c 0,-0.0935 -0.0468,-0.14036 -0.14036,-0.14036 h -2.81826 c -0.0936,0 -0.14037,0.0468 -0.14037,0.14036 v 0.59639 c 0,0.0935 0.0468,0.14036 0.14037,0.14036 h 0.90042 v 5.41412 l -0.0622,-0.13239 c -0.001,-0.002 -0.002,-0.005 -0.003,-0.007 l -0.0961,-0.19392 c -0.001,-0.002 -0.002,-0.004 -0.003,-0.006 l -0.0961,-0.18648 c -7.5e-4,-0.002 -0.002,-0.003 -0.002,-0.005 l -0.0961,-0.18001 c -7.6e-4,-0.001 -0.002,-0.003 -0.002,-0.004 l -0.0961,-0.17504 c -6.3e-4,-0.001 -0.001,-0.002 -0.002,-0.004 l -0.0961,-0.17086 c -6.3e-4,-10e-4 -0.001,-0.002 -0.002,-0.003 l -0.0961,-0.16714 c -6.3e-4,-8.9e-4 -10e-4,-0.002 -0.002,-0.003 l -0.0961,-0.16394 c -5e-4,-8.8e-4 -0.001,-0.002 -0.001,-0.003 l -0.0961,-0.161 c -5e-4,-8.8e-4 -10e-4,-0.002 -10e-4,-0.002 l -0.0961,-0.1582 c -5.1e-4,-7.5e-4 -0.001,-0.002 -0.001,-0.002 l -0.0961,-0.15578 c -5.1e-4,-7.6e-4 -0.001,-0.001 -0.002,-0.002 l -0.0961,-0.1533 c -3.8e-4,-7.5e-4 -8.8e-4,-0.001 -0.001,-0.002 l -0.0961,-0.15107 c -3.8e-4,-7.6e-4 -8.8e-4,-10e-4 -0.001,-0.002 l -0.0961,-0.14904 c -3.8e-4,-6.4e-4 -8.9e-4,-0.001 -0.001,-0.002 l -0.0961,-0.14709 c -3.8e-4,-6.3e-4 -8.9e-4,-0.001 -0.001,-0.002 l -0.0961,-0.14539 c -3.8e-4,-6.3e-4 -8.9e-4,-10e-4 -10e-4,-0.002 l -0.0961,-0.14363 c -3.8e-4,-6.3e-4 -8.9e-4,-0.001 -0.001,-0.002 l -0.0961,-0.14167 c -3.8e-4,-6.3e-4 -8.9e-4,-0.001 -0.001,-0.002 l -0.0961,-0.14017 c -3.8e-4,-6.3e-4 -8.9e-4,-0.001 -0.001,-0.002 l -0.0961,-0.13866 c -3.8e-4,-5.1e-4 -8.8e-4,-0.001 -0.001,-0.001 l -0.0958,-0.13716 c -3.8e-4,-5.1e-4 -8.8e-4,-0.001 -0.001,-0.002 l -0.0961,-0.13546 c -3.8e-4,-6.3e-4 -8.8e-4,-0.001 -0.001,-0.002 l -0.0961,-0.13397 c -3.8e-4,-5e-4 -6.3e-4,-0.001 -0.001,-0.001 l -0.0961,-0.13272 c -3.8e-4,-5e-4 -8.8e-4,-0.001 -10e-4,-0.001 l -0.0961,-0.13122 c -3.8e-4,-5.1e-4 -8.8e-4,-0.001 -0.001,-0.002 l -0.0961,-0.13004 c -3.8e-4,-5e-4 -6.3e-4,-0.001 -0.001,-0.001 l -0.0961,-0.12854 c -3.8e-4,-5e-4 -8.9e-4,-0.001 -0.001,-0.001 l -0.0961,-0.12723 c -3.8e-4,-5.1e-4 -6.4e-4,-0.001 -0.001,-0.002 l -0.0961,-0.12579 c -3.8e-4,-5.1e-4 -8.9e-4,-0.001 -10e-4,-0.002 l -0.0961,-0.12482 c -3.7e-4,-5e-4 -6.3e-4,-10e-4 -0.001,-10e-4 l -0.0961,-0.12357 c -3.8e-4,-5.1e-4 -8.9e-4,-0.001 -0.001,-0.002 l -0.0961,-0.12233 c -3.8e-4,-3.8e-4 -6.4e-4,-8.8e-4 -0.001,-0.001 l -0.0961,-0.12136 -0.001,-0.001 -0.0961,-0.12012 c -3.7e-4,-5e-4 -6.3e-4,-10e-4 -10e-4,-0.002 l -0.0961,-0.11887 -0.001,-0.001 -0.0961,-0.11789 c -3.7e-4,-5.1e-4 -6.3e-4,-0.001 -0.001,-0.001 l -0.0961,-0.11666 -0.001,-0.001 -0.0961,-0.11567 c -3.8e-4,-5.1e-4 -6.3e-4,-0.001 -0.001,-0.001 l -0.0961,-0.11469 -0.001,-0.001 -0.0959,-0.11365 -0.001,-10e-4 -0.0961,-0.1124 c -3.8e-4,-5.1e-4 -6.3e-4,-0.001 -0.001,-0.002 l -0.0961,-0.11142 -0.001,-0.001 -0.0961,-0.11071 c -3.8e-4,-3.8e-4 -6.3e-4,-8.8e-4 -0.001,-0.001 l -0.0961,-0.10966 -10e-4,-0.001 c -0.0317,-0.0362 -0.0636,-0.0724 -0.0952,-0.10856 z"
         style="color:#000000;font-style:normal;font-variant:normal;font-weight:normal;font-stretch:normal;font-size:medium;line-height:normal;font-family:sans-serif;font-variant-ligatures:normal;font-variant-position:normal;font-variant-caps:normal;font-variant-numeric:normal;font-variant-alternates:normal;font-feature-settings:normal;text-indent:0;text-align:start;text-decoration:none;text-decoration-line:none;text-decoration-style:solid;text-decoration-color:#000000;letter-spacing:normal;word-spacing:normal;text-transform:none;writing-mode:lr-tb;direction:ltr;text-orientation:mixed;dominant-baseline:auto;baseline-shift:baseline;text-anchor:start;white-space:normal;shape-padding:0;clip-rule:nonzero;display:inline;overflow:visible;visibility:visible;opacity:1;isolation:auto;mix-blend-mode:normal;color-interpolation:sRGB;color-interpolation-filters:linearRGB;solid-color:#000000;solid-opacity:1;vector-effect:none;fill:#ffffff;fill-opacity:1;fill-rule:nonzero;stroke:none;stroke-width:0.78361219;stroke-linecap:butt;stroke-linejoin:round;stroke-miterlimit:100;stroke-dasharray:none;stroke-dashoffset:0;stroke-opacity:1;color-rendering:auto;image-rendering:auto;shape-rendering:auto;text-rendering:auto;enable-background:accumulate" />
    </g>
  </g>
</svg>
