<?xml version="1.0" encoding="UTF-8" standalone="no"?>
<!-- Created with Inkscape (http://www.inkscape.org/) -->

<svg
   xmlns:dc="http://purl.org/dc/elements/1.1/"
   xmlns:cc="http://creativecommons.org/ns#"
   xmlns:rdf="http://www.w3.org/1999/02/22-rdf-syntax-ns#"
   xmlns:svg="http://www.w3.org/2000/svg"
   xmlns="http://www.w3.org/2000/svg"
   xmlns:sodipodi="http://sodipodi.sourceforge.net/DTD/sodipodi-0.dtd"
   xmlns:inkscape="http://www.inkscape.org/namespaces/inkscape"
   width="191.88661pt"
   height="191.88661pt"
   viewBox="0 0 67.693335 67.69333"
   version="1.1"
   id="svg5324"
   inkscape:version="0.92.0 r15299"
   sodipodi:docname="square-light.svg"
   inkscape:export-filename="/home/tbekolay/Code/nengo.github.io/_static/base-favicon.png"
   inkscape:export-xdpi="5.9468236"
   inkscape:export-ydpi="5.9468236">
  <defs
     id="defs5318">
    <clipPath
       id="p594bf549dd">
      <rect
         height="613.79999"
         width="334.79999"
         x="54"
         y="79.199997"
         id="rect409" />
    </clipPath>
    <clipPath
       id="clipPath6004">
      <rect
         height="613.79999"
         width="334.79999"
         x="54"
         y="79.199997"
         id="rect6002" />
    </clipPath>
    <clipPath
       id="clipPath6008">
      <rect
         height="613.79999"
         width="334.79999"
         x="54"
         y="79.199997"
         id="rect6006" />
    </clipPath>
    <clipPath
       id="clipPath6012">
      <rect
         height="613.79999"
         width="334.79999"
         x="54"
         y="79.199997"
         id="rect6010" />
    </clipPath>
  </defs>
  <sodipodi:namedview
     id="base"
     pagecolor="#ffffff"
     bordercolor="#666666"
     borderopacity="1.0"
     inkscape:pageopacity="0.0"
     inkscape:pageshadow="2"
     inkscape:zoom="2"
     inkscape:cx="122.95084"
     inkscape:cy="79.672367"
     inkscape:document-units="mm"
     inkscape:current-layer="layer1"
     showgrid="false"
     fit-margin-top="1.78717"
     fit-margin-left="1"
     fit-margin-right="1"
     fit-margin-bottom="1.787175"
     inkscape:window-width="1916"
     inkscape:window-height="1033"
     inkscape:window-x="1920"
     inkscape:window-y="22"
     inkscape:window-maximized="0"
     units="pt"
     showguides="false"
     inkscape:lockguides="true" />
  <metadata
     id="metadata5321">
    <rdf:RDF>
      <cc:Work
         rdf:about="">
        <dc:format>image/svg+xml</dc:format>
        <dc:type
           rdf:resource="http://purl.org/dc/dcmitype/StillImage" />
        <dc:title></dc:title>
      </cc:Work>
    </rdf:RDF>
  </metadata>
  <g
     inkscape:label="Layer 1"
     inkscape:groupmode="layer"
     id="layer1"
     transform="translate(109.72012,-87.54582)">
    <g
       id="g4579">
      <path
         transform="matrix(0.26458333,0,0,0.26458333,-109.72012,87.54582)"
         id="path4566"
         d="M 132.64648 186.75977 L 130.05859 185.78516 C 130.04348 185.78138 130.02777 185.77331 130.01367 185.76953 L 127.14062 184.69727 C 127.1293 184.69349 127.11497 184.68542 127.10352 184.68164 L 124.23047 183.62305 C 124.21913 183.61927 124.20286 183.6112 124.19141 183.60742 L 121.31836 182.5625 C 121.30702 182.55872 121.3004 182.55261 121.28906 182.54883 L 118.41602 181.51172 C 118.40468 181.50794 118.38841 181.49987 118.37695 181.49609 L 115.50391 180.4668 C 115.49257 180.46381 115.48595 180.46276 115.47461 180.45898 L 112.60156 179.4375 C 112.59022 179.43372 112.58165 179.42564 112.57031 179.42188 L 109.69727 178.41406 C 109.68971 178.41028 109.68139 178.40417 109.67383 178.40039 L 106.80078 177.40039 C 106.78944 177.3974 106.78282 177.39636 106.77148 177.39258 L 103.89844 176.39258 C 103.89088 176.38959 103.88256 176.38855 103.875 176.38477 L 101.00195 175.39258 C 100.99061 175.38955 100.98204 175.38855 100.9707 175.38477 L 98.097656 174.4082 C 98.090097 174.40522 98.083731 174.40417 98.076172 174.40039 L 95.203125 173.42383 C 95.195566 173.4208 95.187246 173.4198 95.179688 173.41602 L 92.306641 172.44531 L 92.291016 172.4375 L 89.417969 171.47461 C 89.41041 171.47162 89.404043 171.47058 89.396484 171.4668 L 86.521484 170.51172 C 86.513925 170.50873 86.507559 170.50769 86.5 170.50391 L 83.626953 169.55664 L 83.611328 169.54883 L 80.738281 168.60938 C 80.730722 168.60635 80.722403 168.60534 80.714844 168.60156 L 77.841797 167.66016 L 77.826172 167.6543 L 74.953125 166.7207 L 74.939453 166.71289 L 72.066406 165.78711 C 72.058847 165.78405 72.050528 165.78308 72.042969 165.7793 L 69.169922 164.85352 L 69.154297 164.8457 L 66.28125 163.92773 L 66.265625 163.91992 L 63.392578 163.00977 L 63.376953 163.00195 L 62.880859 162.8457 L 62.880859 187.44922 L 64.871094 188.09375 L 67.720703 189.01172 L 70.580078 189.94336 L 73.431641 190.87695 L 76.289062 191.81836 L 79.140625 192.75781 L 81.992188 193.70508 L 84.841797 194.66211 L 87.693359 195.62305 L 90.544922 196.59375 L 93.396484 197.56445 L 96.238281 198.54102 L 99.089844 199.5332 L 101.93359 200.52539 L 104.77734 201.52539 L 107.62109 202.54102 L 110.45703 203.55469 L 113.30078 204.58398 L 116.13672 205.62109 L 118.97266 206.66602 L 121.80273 207.72461 L 124.63867 208.79102 L 127.45898 209.87109 L 130.28906 210.96094 L 133.10938 212.06445 L 135.92383 213.18945 L 138.73828 214.32227 L 141.54492 215.47656 L 144.34375 216.64648 L 147.13477 217.83984 L 149.91992 219.05469 L 152.68945 220.29102 L 155.45117 221.55664 L 158.19922 222.85352 L 160.92383 224.18555 L 163.62695 225.55664 L 166.30664 226.96289 L 168.94336 228.42969 L 171.52734 229.94727 L 174.03125 231.53125 L 176.42969 233.19727 L 178.64453 234.92383 L 180.5332 236.67773 L 180.82227 237.02734 L 188.32422 253.4668 L 180.60742 231.50977 L 179.16992 228.88867 L 176.89648 225.66602 L 174.45312 222.66016 L 171.91406 219.80859 L 169.29883 217.0918 L 166.63281 214.47852 L 163.9375 211.94531 L 161.2207 209.47852 L 158.48047 207.08008 L 155.72461 204.73242 L 152.94922 202.42969 L 150.17188 200.16992 L 147.37891 197.94141 L 144.58789 195.75781 L 141.78125 193.5957 L 138.97461 191.46289 L 136.16016 189.35156 L 133.34766 187.27148 L 132.64648 186.75977 z "
         style="color:#000000;font-style:normal;font-variant:normal;font-weight:normal;font-stretch:normal;font-size:medium;line-height:normal;font-family:sans-serif;font-variant-ligatures:normal;font-variant-position:normal;font-variant-caps:normal;font-variant-numeric:normal;font-variant-alternates:normal;font-feature-settings:normal;text-indent:0;text-align:start;text-decoration:none;text-decoration-line:none;text-decoration-style:solid;text-decoration-color:#000000;letter-spacing:normal;word-spacing:normal;text-transform:none;writing-mode:lr-tb;direction:ltr;text-orientation:mixed;dominant-baseline:auto;baseline-shift:baseline;text-anchor:start;white-space:normal;shape-padding:0;clip-rule:nonzero;display:inline;overflow:visible;visibility:visible;opacity:1;isolation:auto;mix-blend-mode:normal;color-interpolation:sRGB;color-interpolation-filters:linearRGB;solid-color:#000000;solid-opacity:1;vector-effect:none;fill:#984ea3;fill-opacity:1;fill-rule:nonzero;stroke:none;stroke-width:23.43262291;stroke-linecap:butt;stroke-linejoin:round;stroke-miterlimit:100;stroke-dasharray:none;stroke-dashoffset:0;stroke-opacity:1;color-rendering:auto;image-rendering:auto;shape-rendering:auto;text-rendering:auto;enable-background:accumulate" />
      <path
         transform="matrix(0.26458333,0,0,0.26458333,-109.72012,87.54582)"
         id="path4571"
         d="M 121.40039 150.25586 L 120.99219 149.98047 C 120.98085 149.97291 120.97423 149.96459 120.96289 149.95703 L 118.08984 148.02539 C 118.07851 148.01783 118.06223 148.00951 118.05078 148.00195 L 115.17773 146.08398 C 115.1664 146.07643 115.15978 146.06811 115.14844 146.06055 L 112.27539 144.16602 C 112.26405 144.15846 112.24778 144.15014 112.23633 144.14258 L 109.36328 142.25391 C 109.35194 142.24635 109.34532 142.23998 109.33398 142.23242 L 106.46094 140.35938 C 106.4496 140.3556 106.44103 140.34753 106.42969 140.34375 L 103.55664 138.47656 C 103.5453 138.47278 103.53673 138.46667 103.52539 138.46289 L 100.66016 136.61133 C 100.64882 136.60377 100.6422 136.59545 100.63086 136.58789 L 97.757812 134.75195 C 97.746475 134.74817 97.737901 134.74011 97.726562 134.73633 L 94.853516 132.9082 C 94.842177 132.90442 94.835557 132.89636 94.824219 132.89258 L 91.957031 131.07031 C 91.945693 131.06653 91.939073 131.05847 91.927734 131.05469 L 89.054688 129.24805 C 89.043349 129.24427 89.034775 129.23814 89.023438 129.23438 L 86.158203 127.44141 C 86.146865 127.43763 86.138292 127.42956 86.126953 127.42578 L 83.253906 125.64258 C 83.246347 125.6388 83.239981 125.63073 83.232422 125.62695 L 80.359375 123.84961 C 80.351816 123.84583 80.343496 123.83776 80.335938 123.83398 L 77.462891 122.07227 C 77.451552 122.06849 77.442979 122.06042 77.431641 122.05664 L 74.558594 120.30078 C 74.551035 120.297 74.544668 120.29089 74.537109 120.28711 L 71.677734 118.55273 C 71.670175 118.54895 71.661856 118.54089 71.654297 118.53711 L 68.78125 116.80469 C 68.773691 116.80091 68.765372 116.79284 68.757812 116.78906 L 65.884766 115.05664 C 65.877207 115.05365 65.87084 115.05261 65.863281 115.04883 L 62.990234 113.33008 C 62.982675 113.3263 62.974356 113.32019 62.966797 113.31641 L 62.880859 113.26562 L 62.880859 140.62891 L 65.21875 142.05469 L 68.070312 143.80273 L 70.914062 145.56445 L 73.763672 147.33398 L 76.607422 149.11133 L 79.458984 150.89648 L 82.302734 152.69531 L 85.146484 154.50977 L 87.990234 156.32422 L 90.833984 158.16016 L 93.677734 160.00391 L 96.521484 161.85547 L 99.363281 163.72266 L 102.20117 165.60352 L 105.04492 167.49805 L 107.88086 169.40234 L 110.7168 171.32031 L 113.55273 173.25195 L 116.38867 175.20703 L 119.2168 177.16992 L 122.04688 179.1543 L 124.875 181.1543 L 127.70312 183.17578 L 130.52539 185.21289 L 133.34766 187.27148 L 136.16016 189.35156 L 138.97461 191.46289 L 141.78125 193.5957 L 144.58789 195.75781 L 147.37891 197.94141 L 150.17188 200.16992 L 152.94922 202.42969 L 155.72461 204.73242 L 158.48047 207.08008 L 161.2207 209.47852 L 163.9375 211.94531 L 166.63281 214.47852 L 169.29883 217.0918 L 171.91406 219.80859 L 174.45312 222.66016 L 176.89648 225.66602 L 179.16992 228.88867 L 180.60742 231.50977 L 188.30664 253.41992 L 180.50195 227.22461 L 178.50977 222.47656 L 176.00586 217.69336 L 173.40039 213.2793 L 170.72656 209.125 L 168.02344 205.15625 L 165.2832 201.33594 L 162.5293 197.625 L 159.75977 194.01172 L 156.97461 190.47852 L 154.18359 187.02148 L 151.38477 183.62109 L 148.57812 180.2832 L 145.77148 176.98633 L 142.94922 173.75 L 140.13477 170.55078 L 137.31445 167.39062 L 134.49219 164.26562 L 131.66406 161.18359 L 128.83594 158.125 L 126.00586 155.10352 L 123.17773 152.11328 L 121.40039 150.25586 z "
         style="color:#000000;font-style:normal;font-variant:normal;font-weight:normal;font-stretch:normal;font-size:medium;line-height:normal;font-family:sans-serif;font-variant-ligatures:normal;font-variant-position:normal;font-variant-caps:normal;font-variant-numeric:normal;font-variant-alternates:normal;font-feature-settings:normal;text-indent:0;text-align:start;text-decoration:none;text-decoration-line:none;text-decoration-style:solid;text-decoration-color:#000000;letter-spacing:normal;word-spacing:normal;text-transform:none;writing-mode:lr-tb;direction:ltr;text-orientation:mixed;dominant-baseline:auto;baseline-shift:baseline;text-anchor:start;white-space:normal;shape-padding:0;clip-rule:nonzero;display:inline;overflow:visible;visibility:visible;opacity:1;isolation:auto;mix-blend-mode:normal;color-interpolation:sRGB;color-interpolation-filters:linearRGB;solid-color:#000000;solid-opacity:1;vector-effect:none;fill:#e7298a;fill-opacity:1;fill-rule:nonzero;stroke:none;stroke-width:23.43262291;stroke-linecap:butt;stroke-linejoin:round;stroke-miterlimit:100;stroke-dasharray:none;stroke-dashoffset:0;stroke-opacity:1;color-rendering:auto;image-rendering:auto;shape-rendering:auto;text-rendering:auto;enable-background:accumulate" />
      <path
         transform="matrix(0.26458333,0,0,0.26458333,-109.72012,87.54582)"
         id="path4533"
         d="M 62.880859 94.152344 L 63.558594 94.751953 L 66.402344 97.285156 L 69.238281 99.839844 L 72.082031 102.4082 L 74.925781 104.99414 L 77.769531 107.59961 L 80.611328 110.2207 L 83.449219 112.86523 L 86.292969 115.53125 L 89.134766 118.21094 L 91.972656 120.91406 L 94.816406 123.63281 L 97.652344 126.37891 L 100.48828 129.14258 L 103.33203 131.93359 L 106.16797 134.74023 L 109.00391 137.57617 L 111.83984 140.42773 L 114.67578 143.31445 L 117.51172 146.21875 L 120.3418 149.15039 L 123.17773 152.11328 L 126.00586 155.10352 L 128.83594 158.125 L 131.66406 161.18359 L 134.49219 164.26562 L 137.31445 167.39062 L 140.13477 170.55078 L 142.94922 173.75 L 145.77148 176.98633 L 148.57812 180.2832 L 151.38477 183.62109 L 154.18359 187.02148 L 156.97461 190.47852 L 159.75977 194.01172 L 162.5293 197.625 L 165.2832 201.33594 L 168.02344 205.15625 L 170.72656 209.125 L 173.40039 213.2793 L 176.00586 217.69336 L 178.50977 222.47656 L 180.50195 227.22461 L 188.32227 253.46875 L 180.43555 222.66211 L 178.08789 215.45703 L 175.42969 208.70312 L 172.70312 202.49023 L 169.94922 196.63281 L 167.17188 191.01953 L 164.38086 185.60742 L 161.57422 180.35547 L 158.76758 175.23242 L 155.95312 170.22656 L 153.13086 165.31641 L 150.31055 160.50195 L 147.48242 155.76367 L 144.65234 151.11328 L 141.82422 146.52148 L 138.98828 142.00391 L 136.1582 137.54688 L 133.32227 133.14844 L 130.49414 128.80859 L 127.6582 124.52148 L 124.82227 120.28516 L 124.76758 120.19922 L 122.70117 118.13867 C 122.68983 118.12733 122.68126 118.1129 122.66992 118.10156 L 119.79688 115.25781 L 119.75977 115.21875 L 116.88672 112.39844 C 116.87538 112.3871 116.85918 112.37853 116.84766 112.36719 L 113.98242 109.56836 L 113.94531 109.53125 L 111.07227 106.76172 C 111.06093 106.75038 111.05235 106.73513 111.04102 106.72266 L 108.16797 103.96875 C 108.15663 103.95741 108.1422 103.94884 108.13086 103.9375 L 105.25781 101.20508 L 105.22656 101.17578 L 102.35352 98.464844 L 102.32227 98.433594 L 99.449219 95.738281 L 99.419922 95.708984 L 96.546875 93.035156 C 96.535536 93.023818 96.519264 93.017198 96.507812 93.005859 L 93.642578 90.355469 C 93.63124 90.34413 93.614968 90.335557 93.603516 90.324219 L 90.730469 87.695312 L 90.701172 87.666016 L 87.828125 85.052734 L 87.796875 85.021484 L 84.923828 82.421875 C 84.91249 82.414316 84.906248 82.405997 84.894531 82.398438 L 82.021484 79.820312 L 81.988281 79.791016 L 79.115234 77.228516 C 79.103896 77.220957 79.095323 77.212637 79.083984 77.205078 L 76.210938 74.658203 L 76.181641 74.628906 L 73.314453 72.105469 C 73.303115 72.09791 73.296873 72.08959 73.285156 72.082031 L 70.412109 69.572266 C 70.400771 69.564707 70.392198 69.55834 70.380859 69.550781 L 67.507812 67.054688 L 67.478516 67.023438 L 64.605469 64.548828 C 64.59413 64.541269 64.585557 64.534903 64.574219 64.527344 L 62.880859 63.074219 L 62.880859 94.152344 z "
         style="color:#000000;font-style:normal;font-variant:normal;font-weight:normal;font-stretch:normal;font-size:medium;line-height:normal;font-family:sans-serif;font-variant-ligatures:normal;font-variant-position:normal;font-variant-caps:normal;font-variant-numeric:normal;font-variant-alternates:normal;font-feature-settings:normal;text-indent:0;text-align:start;text-decoration:none;text-decoration-line:none;text-decoration-style:solid;text-decoration-color:#000000;letter-spacing:normal;word-spacing:normal;text-transform:none;writing-mode:lr-tb;direction:ltr;text-orientation:mixed;dominant-baseline:auto;baseline-shift:baseline;text-anchor:start;white-space:normal;shape-padding:0;clip-rule:nonzero;display:inline;overflow:visible;visibility:visible;opacity:1;isolation:auto;mix-blend-mode:normal;color-interpolation:sRGB;color-interpolation-filters:linearRGB;solid-color:#000000;solid-opacity:1;vector-effect:none;fill:#4daf4a;fill-opacity:1;fill-rule:nonzero;stroke:none;stroke-width:23.43262291;stroke-linecap:butt;stroke-linejoin:round;stroke-miterlimit:100;stroke-dasharray:none;stroke-dashoffset:0;stroke-opacity:1;color-rendering:auto;image-rendering:auto;shape-rendering:auto;text-rendering:auto;enable-background:accumulate" />
      <path
         sodipodi:nodetypes="ssssccssssssssccccccccccccccccccccccccccccccccccccccccccccccccsscsssssssscccccccccccccccccccccccccccccccccccccccccccccccccccccccccccccccccccccccccccccccccccccccccccs"
         inkscape:connector-curvature="0"
         id="path4546"
         transform="matrix(0.26458333,0,0,0.26458333,-109.72012,87.54582)"
         d="m 5.8789062,2.3828125 c -3.0307275,0 -4.5449218,1.3996971 -4.5449218,4.1972656 V 24.414062 c 0,2.797569 1.5141943,4.195313 4.5449218,4.195313 H 32.457031 V 227.23828 H 5.8789062 c -3.0307275,0 -4.5449218,1.3997 -4.5449218,4.19727 v 17.83398 c 0,2.79757 1.5141943,4.19531 4.5449218,4.19531 H 89.806641 c 3.030712,0 4.546875,-1.39774 4.546875,-4.19531 v -17.83398 c 0,-2.79757 -1.516163,-4.19727 -4.546875,-4.19727 H 62.880859 V 55.1875 38.226562 l 2.337891,2.783204 2.835938,3.421875 2.835937,3.451171 2.84375,3.480469 2.835937,3.509766 2.84375,3.546875 2.835938,3.583984 2.837891,3.613282 2.841797,3.65039 2.83789,3.689453 2.835938,3.716797 2.84375,3.761719 2.835937,3.798828 2.835937,3.835937 2.84375,3.873047 2.83594,3.917969 2.83594,3.960938 2.83593,3.998044 2.83594,4.04492 2.84375,4.09375 2.83594,4.13282 2.83789,4.1914 2.83594,4.23633 2.83593,4.28711 2.82813,4.33984 2.83594,4.39844 2.83007,4.45703 2.83594,4.51758 2.82813,4.5918 2.83008,4.65039 2.82812,4.73828 2.82031,4.81445 2.82227,4.91016 2.81445,5.00586 2.80664,5.12305 2.80664,5.25195 2.79102,5.41211 2.77734,5.61328 2.75391,5.85742 2.72656,6.21289 2.6582,6.75391 2.34766,7.20508 7.88672,30.80664 h 4.64453 6.99414 18.88281 c 3.03072,0 4.54688,-1.3997 4.54688,-4.19727 V 28.611328 h 26.92578 c 2.79758,0 4.19726,-1.399697 4.19726,-4.197266 V 6.5800781 c 0,-2.7975685 -1.39968,-4.1972656 -4.19726,-4.1972656 h -84.27539 c -2.79758,0 -4.19727,1.3996971 -4.19727,4.1972656 V 24.414062 c 0,2.797569 1.39969,4.197266 4.19727,4.197266 h 26.92578 V 190.51172 l -1.86133,-3.95899 c -0.034,-0.0722 -0.0682,-0.14341 -0.10351,-0.21484 l -2.87305,-5.79883 c -0.0302,-0.0567 -0.058,-0.1136 -0.0879,-0.16992 l -2.87305,-5.57617 c -0.0227,-0.0469 -0.0492,-0.0941 -0.0742,-0.14063 l -2.87304,-5.38281 c -0.0227,-0.042 -0.046,-0.0854 -0.0684,-0.12695 l -2.87305,-5.23438 c -0.0189,-0.0378 -0.0388,-0.0747 -0.0586,-0.11132 l -2.87305,-5.10938 c -0.0189,-0.0302 -0.0348,-0.0655 -0.0527,-0.0977 l -2.87305,-4.99804 c -0.0189,-0.0265 -0.0328,-0.0548 -0.0508,-0.082 L 170.5,148.60742 c -0.0151,-0.0264 -0.0308,-0.0529 -0.0449,-0.0801 l -2.87305,-4.81445 c -0.0151,-0.0265 -0.0308,-0.0493 -0.0449,-0.0742 l -2.87305,-4.73047 c -0.0151,-0.0227 -0.0308,-0.0461 -0.0449,-0.0684 l -2.87305,-4.6582 c -0.0151,-0.0227 -0.0308,-0.0437 -0.0449,-0.0664 l -2.87305,-4.58398 c -0.0113,-0.0227 -0.0257,-0.0437 -0.0371,-0.0664 l -2.87305,-4.51757 c -0.0113,-0.0227 -0.0276,-0.0441 -0.0391,-0.0664 l -2.87305,-4.45703 c -0.0113,-0.0189 -0.0257,-0.0405 -0.0371,-0.0605 l -2.87305,-4.39844 c -0.0113,-0.0189 -0.0276,-0.0386 -0.0391,-0.0586 l -2.87305,-4.34766 c -0.0113,-0.0189 -0.0257,-0.033 -0.0371,-0.0508 l -2.87304,-4.29492 c -0.0113,-0.0189 -0.0276,-0.0346 -0.0391,-0.0527 l -2.87305,-4.23633 c -0.0113,-0.0189 -0.0257,-0.033 -0.0371,-0.0508 l -2.87305,-4.191409 c -0.0113,-0.0189 -0.0276,-0.03497 -0.0391,-0.05273 l -2.87305,-4.146484 c -0.0113,-0.01512 -0.0257,-0.03094 -0.0371,-0.04492 l -2.86523,-4.101562 c -0.0113,-0.01512 -0.0276,-0.03094 -0.0391,-0.04492 l -2.87305,-4.050782 c -0.0113,-0.0189 -0.0257,-0.03302 -0.0371,-0.05078 l -2.87305,-4.005859 c -0.0113,-0.01512 -0.0199,-0.03094 -0.0312,-0.04492 l -2.87304,-3.96875 c -0.0113,-0.01512 -0.0257,-0.03094 -0.0371,-0.04492 L 121,74.201172 c -0.0113,-0.01512 -0.0276,-0.03094 -0.0391,-0.04492 l -2.87305,-3.888672 c -0.0113,-0.01512 -0.018,-0.02898 -0.0293,-0.04297 l -2.875,-3.84375 c -0.0113,-0.01512 -0.0256,-0.03094 -0.0371,-0.04492 l -2.87304,-3.804688 c -0.0113,-0.01512 -0.0199,-0.03094 -0.0312,-0.04492 l -2.87305,-3.761719 c -0.0113,-0.01512 -0.0257,-0.03094 -0.0371,-0.04492 l -2.87305,-3.732422 c -0.0113,-0.01512 -0.0199,-0.02898 -0.0312,-0.04297 l -2.87304,-3.695313 c -0.0113,-0.01512 -0.0257,-0.03094 -0.0371,-0.04492 l -2.87305,-3.658203 c -0.0113,-0.01134 -0.0199,-0.02577 -0.0312,-0.03711 l -2.873046,-3.628906 -0.03711,-0.03711 -2.873047,-3.591796 c -0.01134,-0.01512 -0.01991,-0.03079 -0.03125,-0.04492 l -2.873047,-3.554688 -0.03711,-0.03711 -2.873047,-3.525391 c -0.01134,-0.01512 -0.01991,-0.03079 -0.03125,-0.04492 l -2.873047,-3.488281 -0.03711,-0.03711 -2.873047,-3.458985 c -0.01134,-0.01512 -0.01991,-0.02883 -0.03125,-0.04297 l -2.873047,-3.429687 -0.03711,-0.03711 -2.867188,-3.398438 -0.03711,-0.03906 -2.873047,-3.361328 c -0.01134,-0.01512 -0.01991,-0.03079 -0.03125,-0.04492 l -2.873047,-3.332032 -0.03711,-0.03711 -2.873047,-3.3105469 c -0.01134,-0.011339 -0.01991,-0.02761 -0.03125,-0.039063 L 65.763672,5.6679688 65.726562,5.6289062 C 64.777741,4.5476854 63.825668,3.4652636 62.880859,2.3828125 Z"
         style="color:#000000;font-style:normal;font-variant:normal;font-weight:normal;font-stretch:normal;font-size:medium;line-height:normal;font-family:sans-serif;font-variant-ligatures:normal;font-variant-position:normal;font-variant-caps:normal;font-variant-numeric:normal;font-variant-alternates:normal;font-feature-settings:normal;text-indent:0;text-align:start;text-decoration:none;text-decoration-line:none;text-decoration-style:solid;text-decoration-color:#000000;letter-spacing:normal;word-spacing:normal;text-transform:none;writing-mode:lr-tb;direction:ltr;text-orientation:mixed;dominant-baseline:auto;baseline-shift:baseline;text-anchor:start;white-space:normal;shape-padding:0;clip-rule:nonzero;display:inline;overflow:visible;visibility:visible;opacity:1;isolation:auto;mix-blend-mode:normal;color-interpolation:sRGB;color-interpolation-filters:linearRGB;solid-color:#000000;solid-opacity:1;vector-effect:none;fill:#212121;fill-opacity:1;fill-rule:nonzero;stroke:none;stroke-width:23.43262291;stroke-linecap:butt;stroke-linejoin:round;stroke-miterlimit:100;stroke-dasharray:none;stroke-dashoffset:0;stroke-opacity:1;color-rendering:auto;image-rendering:auto;shape-rendering:auto;text-rendering:auto;enable-background:accumulate" />
    </g>
  </g>
</svg>
