<?xml version="1.0" encoding="UTF-8" standalone="no"?>
<!-- Created with Inkscape (http://www.inkscape.org/) -->

<svg
   xmlns:dc="http://purl.org/dc/elements/1.1/"
   xmlns:cc="http://creativecommons.org/ns#"
   xmlns:rdf="http://www.w3.org/1999/02/22-rdf-syntax-ns#"
   xmlns:svg="http://www.w3.org/2000/svg"
   xmlns="http://www.w3.org/2000/svg"
   xmlns:sodipodi="http://sodipodi.sourceforge.net/DTD/sodipodi-0.dtd"
   xmlns:inkscape="http://www.inkscape.org/namespaces/inkscape"
   width="40.639999"
   height="40.640003"
   viewBox="0 0 10.752667 10.752667"
   version="1.1"
   id="svg5324"
   inkscape:version="0.92.0 r15299"
   sodipodi:docname="small-light.svg"
   inkscape:export-filename="/home/tbekolay/Code/nengo.github.io/_static/base-favicon.png"
   inkscape:export-xdpi="5.9468236"
   inkscape:export-ydpi="5.9468236">
  <defs
     id="defs5318">
    <clipPath
       id="p594bf549dd">
      <rect
         height="613.79999"
         width="334.79999"
         x="54"
         y="79.199997"
         id="rect409" />
    </clipPath>
    <clipPath
       id="clipPath6004">
      <rect
         height="613.79999"
         width="334.79999"
         x="54"
         y="79.199997"
         id="rect6002" />
    </clipPath>
    <clipPath
       id="clipPath6008">
      <rect
         height="613.79999"
         width="334.79999"
         x="54"
         y="79.199997"
         id="rect6006" />
    </clipPath>
    <clipPath
       id="clipPath6012">
      <rect
         height="613.79999"
         width="334.79999"
         x="54"
         y="79.199997"
         id="rect6010" />
    </clipPath>
  </defs>
  <sodipodi:namedview
     id="base"
     pagecolor="#ffffff"
     bordercolor="#666666"
     borderopacity="1.0"
     inkscape:pageopacity="0.0"
     inkscape:pageshadow="2"
     inkscape:zoom="8"
     inkscape:cx="-1.6122964"
     inkscape:cy="20.042684"
     inkscape:document-units="mm"
     inkscape:current-layer="layer1"
     showgrid="false"
     fit-margin-top="4.45244"
     fit-margin-left="4.32"
     fit-margin-right="4.32"
     fit-margin-bottom="4.45244"
     inkscape:window-width="1916"
     inkscape:window-height="1033"
     inkscape:window-x="1920"
     inkscape:window-y="22"
     inkscape:window-maximized="0"
     units="px"
     showguides="false"
     inkscape:lockguides="true" />
  <metadata
     id="metadata5321">
    <rdf:RDF>
      <cc:Work
         rdf:about="">
        <dc:format>image/svg+xml</dc:format>
        <dc:type
           rdf:resource="http://purl.org/dc/dcmitype/StillImage" />
        <dc:title></dc:title>
      </cc:Work>
    </rdf:RDF>
  </metadata>
  <g
     inkscape:label="Layer 1"
     inkscape:groupmode="layer"
     id="layer1"
     transform="translate(110.51017,-145.0348)">
    <g
       id="g4579"
       transform="matrix(0.12639148,0,0,0.12639148,-95.544092,135.06811)">
      <path
         transform="matrix(0.26458333,0,0,0.26458333,-109.72012,87.54582)"
         id="path4566"
         d="m 132.64648,186.75977 -2.58789,-0.97461 c -0.0151,-0.004 -0.0308,-0.0118 -0.0449,-0.0156 l -2.87305,-1.07226 c -0.0113,-0.004 -0.0256,-0.0119 -0.0371,-0.0156 l -2.87305,-1.05859 c -0.0113,-0.004 -0.0276,-0.0119 -0.0391,-0.0156 l -2.87305,-1.04492 c -0.0113,-0.004 -0.018,-0.01 -0.0293,-0.0137 l -2.87304,-1.03711 c -0.0113,-0.004 -0.0276,-0.0119 -0.0391,-0.0156 l -2.87304,-1.02929 c -0.0113,-0.003 -0.018,-0.004 -0.0293,-0.008 l -2.87305,-1.02148 c -0.0113,-0.004 -0.0199,-0.0119 -0.0312,-0.0156 l -2.87304,-1.00782 c -0.008,-0.004 -0.0159,-0.01 -0.0234,-0.0137 l -2.87305,-1 c -0.0113,-0.003 -0.018,-0.004 -0.0293,-0.008 l -2.87304,-1 c -0.008,-0.003 -0.0159,-0.004 -0.0234,-0.008 l -2.87305,-0.99219 c -0.0113,-0.003 -0.0199,-0.004 -0.0312,-0.008 l -2.873044,-0.97657 c -0.0076,-0.003 -0.01393,-0.004 -0.02148,-0.008 l -2.873047,-0.97656 c -0.0076,-0.003 -0.01588,-0.004 -0.02344,-0.008 l -2.873047,-0.97071 -0.01563,-0.008 -2.873047,-0.96289 c -0.0076,-0.003 -0.01393,-0.004 -0.02148,-0.008 l -2.875,-0.95508 c -0.0076,-0.003 -0.01393,-0.004 -0.02148,-0.008 l -2.873047,-0.94727 -0.01563,-0.008 -2.873047,-0.93945 c -0.0076,-0.003 -0.01588,-0.004 -0.02344,-0.008 l -2.873047,-0.9414 -0.01563,-0.006 -2.873047,-0.9336 -0.01367,-0.008 -2.873047,-0.92578 c -0.0076,-0.003 -0.01588,-0.004 -0.02344,-0.008 l -2.873047,-0.92578 -0.01563,-0.008 -2.873047,-0.91797 -0.01563,-0.008 -2.873047,-0.91015 -0.01563,-0.008 -0.496094,-0.15625 v 24.60352 l 1.990235,0.64453 2.849609,0.91797 2.859375,0.93164 2.851563,0.93359 2.857421,0.94141 2.851563,0.93945 2.851563,0.94727 2.849609,0.95703 2.851562,0.96094 2.851563,0.9707 2.851562,0.9707 2.841797,0.97657 2.851563,0.99218 2.84375,0.99219 2.84375,1 2.84375,1.01563 2.83594,1.01367 2.84375,1.02929 2.83594,1.03711 2.83594,1.04493 2.83007,1.05859 2.83594,1.06641 2.82031,1.08007 2.83008,1.08985 2.82032,1.10351 2.81445,1.125 2.81445,1.13282 2.80664,1.15429 2.79883,1.16992 2.79102,1.19336 2.78515,1.21485 2.76953,1.23633 2.76172,1.26562 2.74805,1.29688 2.72461,1.33203 2.70312,1.37109 2.67969,1.40625 2.63672,1.4668 2.58398,1.51758 2.50391,1.58398 2.39844,1.66602 2.21484,1.72656 1.88867,1.7539 0.28907,0.34961 7.50195,16.43946 -7.7168,-21.95703 -1.4375,-2.6211 -2.27344,-3.22265 -2.44336,-3.00586 -2.53906,-2.85157 -2.61523,-2.71679 -2.66602,-2.61328 -2.69531,-2.53321 -2.7168,-2.46679 -2.74023,-2.39844 -2.75586,-2.34766 -2.77539,-2.30273 -2.77734,-2.25977 -2.79297,-2.22851 -2.79102,-2.1836 -2.80664,-2.16211 -2.80664,-2.13281 -2.81445,-2.11133 -2.8125,-2.08008 z"
         style="color:#000000;font-style:normal;font-variant:normal;font-weight:normal;font-stretch:normal;font-size:medium;line-height:normal;font-family:sans-serif;font-variant-ligatures:normal;font-variant-position:normal;font-variant-caps:normal;font-variant-numeric:normal;font-variant-alternates:normal;font-feature-settings:normal;text-indent:0;text-align:start;text-decoration:none;text-decoration-line:none;text-decoration-style:solid;text-decoration-color:#000000;letter-spacing:normal;word-spacing:normal;text-transform:none;writing-mode:lr-tb;direction:ltr;text-orientation:mixed;dominant-baseline:auto;baseline-shift:baseline;text-anchor:start;white-space:normal;shape-padding:0;clip-rule:nonzero;display:inline;overflow:visible;visibility:visible;opacity:1;isolation:auto;mix-blend-mode:normal;color-interpolation:sRGB;color-interpolation-filters:linearRGB;solid-color:#000000;solid-opacity:1;vector-effect:none;fill:#984ea3;fill-opacity:1;fill-rule:nonzero;stroke:none;stroke-width:23.43262291;stroke-linecap:butt;stroke-linejoin:round;stroke-miterlimit:100;stroke-dasharray:none;stroke-dashoffset:0;stroke-opacity:1;color-rendering:auto;image-rendering:auto;shape-rendering:auto;text-rendering:auto;enable-background:accumulate"
         inkscape:connector-curvature="0" />
      <path
         transform="matrix(0.26458333,0,0,0.26458333,-109.72012,87.54582)"
         id="path4571"
         d="m 121.40039,150.25586 -0.4082,-0.27539 c -0.0113,-0.008 -0.018,-0.0159 -0.0293,-0.0234 l -2.87305,-1.93164 c -0.0113,-0.008 -0.0276,-0.0159 -0.0391,-0.0234 l -2.87305,-1.91797 c -0.0113,-0.008 -0.0179,-0.0159 -0.0293,-0.0234 l -2.87305,-1.89453 c -0.0113,-0.008 -0.0276,-0.0159 -0.0391,-0.0234 l -2.87305,-1.88867 c -0.0113,-0.008 -0.018,-0.0139 -0.0293,-0.0215 l -2.87304,-1.87304 c -0.0113,-0.004 -0.0199,-0.0118 -0.0312,-0.0156 l -2.87305,-1.86719 c -0.0113,-0.004 -0.0199,-0.01 -0.0312,-0.0137 l -2.86523,-1.85156 c -0.0113,-0.008 -0.018,-0.0159 -0.0293,-0.0234 l -2.873048,-1.83594 c -0.01134,-0.004 -0.01991,-0.0118 -0.03125,-0.0156 l -2.873046,-1.82813 c -0.01134,-0.004 -0.01796,-0.0118 -0.0293,-0.0156 l -2.867188,-1.82227 c -0.01134,-0.004 -0.01796,-0.0118 -0.0293,-0.0156 l -2.873046,-1.80664 c -0.01134,-0.004 -0.01991,-0.01 -0.03125,-0.0137 l -2.865235,-1.79297 c -0.01134,-0.004 -0.01991,-0.0119 -0.03125,-0.0156 l -2.873047,-1.7832 c -0.0076,-0.004 -0.01393,-0.0118 -0.02148,-0.0156 l -2.873047,-1.77734 c -0.0076,-0.004 -0.01588,-0.0118 -0.02344,-0.0156 l -2.873047,-1.76171 c -0.01134,-0.004 -0.01991,-0.0119 -0.03125,-0.0156 l -2.873047,-1.75586 c -0.0076,-0.004 -0.01393,-0.01 -0.02148,-0.0137 l -2.859375,-1.73438 c -0.0076,-0.004 -0.01588,-0.0118 -0.02344,-0.0156 l -2.873047,-1.73242 c -0.0076,-0.004 -0.01588,-0.0118 -0.02344,-0.0156 l -2.873046,-1.73242 c -0.0076,-0.003 -0.01393,-0.004 -0.02148,-0.008 l -2.873047,-1.71875 c -0.0076,-0.004 -0.01588,-0.01 -0.02344,-0.0137 l -0.08594,-0.0508 v 27.36329 l 2.337891,1.42578 2.851562,1.74804 2.84375,1.76172 2.84961,1.76953 2.84375,1.77735 2.851562,1.78515 2.84375,1.79883 2.84375,1.81446 2.84375,1.81445 2.84375,1.83594 2.84375,1.84375 2.84375,1.85156 2.841797,1.86719 2.837884,1.88086 2.84375,1.89453 2.83594,1.90429 2.83594,1.91797 2.83593,1.93164 2.83594,1.95508 2.82813,1.96289 2.83008,1.98438 2.82812,2 2.82812,2.02148 2.82227,2.03711 2.82227,2.05859 2.8125,2.08008 2.81445,2.11133 2.80664,2.13281 2.80664,2.16211 2.79102,2.1836 2.79297,2.22851 2.77734,2.25977 2.77539,2.30273 2.75586,2.34766 2.74023,2.39844 2.7168,2.46679 2.69531,2.53321 2.66602,2.61328 2.61523,2.71679 2.53906,2.85157 2.44336,3.00586 2.27344,3.22265 1.4375,2.6211 7.69922,21.91015 -7.80469,-26.19531 -1.99218,-4.74805 -2.50391,-4.7832 -2.60547,-4.41406 -2.67383,-4.1543 -2.70312,-3.96875 -2.74024,-3.82031 -2.7539,-3.71094 -2.76953,-3.61328 -2.78516,-3.5332 -2.79102,-3.45704 -2.79882,-3.40039 -2.80665,-3.33789 -2.80664,-3.29687 -2.82226,-3.23633 -2.81445,-3.19922 -2.82032,-3.16016 -2.82226,-3.125 -2.82813,-3.08203 -2.82812,-3.05859 -2.83008,-3.02148 -2.82813,-2.99024 z"
         style="color:#000000;font-style:normal;font-variant:normal;font-weight:normal;font-stretch:normal;font-size:medium;line-height:normal;font-family:sans-serif;font-variant-ligatures:normal;font-variant-position:normal;font-variant-caps:normal;font-variant-numeric:normal;font-variant-alternates:normal;font-feature-settings:normal;text-indent:0;text-align:start;text-decoration:none;text-decoration-line:none;text-decoration-style:solid;text-decoration-color:#000000;letter-spacing:normal;word-spacing:normal;text-transform:none;writing-mode:lr-tb;direction:ltr;text-orientation:mixed;dominant-baseline:auto;baseline-shift:baseline;text-anchor:start;white-space:normal;shape-padding:0;clip-rule:nonzero;display:inline;overflow:visible;visibility:visible;opacity:1;isolation:auto;mix-blend-mode:normal;color-interpolation:sRGB;color-interpolation-filters:linearRGB;solid-color:#000000;solid-opacity:1;vector-effect:none;fill:#e7298a;fill-opacity:1;fill-rule:nonzero;stroke:none;stroke-width:23.43262291;stroke-linecap:butt;stroke-linejoin:round;stroke-miterlimit:100;stroke-dasharray:none;stroke-dashoffset:0;stroke-opacity:1;color-rendering:auto;image-rendering:auto;shape-rendering:auto;text-rendering:auto;enable-background:accumulate"
         inkscape:connector-curvature="0" />
      <path
         transform="matrix(0.26458333,0,0,0.26458333,-109.72012,87.54582)"
         id="path4533"
         d="m 62.880859,94.152344 0.677735,0.599609 2.84375,2.533203 2.835937,2.554688 2.84375,2.568356 2.84375,2.58594 2.84375,2.60547 2.841797,2.62109 2.837891,2.64453 2.84375,2.66602 2.841797,2.67969 2.83789,2.70312 2.84375,2.71875 2.835938,2.7461 2.835936,2.76367 2.84375,2.79101 2.83594,2.80664 2.83594,2.83594 2.83593,2.85156 2.83594,2.88672 2.83594,2.9043 2.83008,2.93164 2.83593,2.96289 2.82813,2.99024 2.83008,3.02148 2.82812,3.05859 2.82813,3.08203 2.82226,3.125 2.82032,3.16016 2.81445,3.19922 2.82226,3.23633 2.80664,3.29687 2.80665,3.33789 2.79882,3.40039 2.79102,3.45704 2.78516,3.5332 2.76953,3.61328 2.7539,3.71094 2.74024,3.82031 2.70312,3.96875 2.67383,4.1543 2.60547,4.41406 2.50391,4.7832 1.99218,4.74805 7.82032,26.24414 -7.88672,-30.80664 -2.34766,-7.20508 -2.6582,-6.75391 -2.72657,-6.21289 -2.7539,-5.85742 -2.77734,-5.61328 -2.79102,-5.41211 -2.80664,-5.25195 -2.80664,-5.12305 -2.81446,-5.00586 -2.82226,-4.91015 -2.82031,-4.81446 -2.82813,-4.73828 -2.83008,-4.65039 -2.82812,-4.5918 -2.83594,-4.51757 -2.83008,-4.45703 -2.83593,-4.39844 -2.82813,-4.33985 -2.83594,-4.28711 -2.83593,-4.23632 -0.0547,-0.0859 -2.06641,-2.06055 c -0.0113,-0.0113 -0.0199,-0.0258 -0.0312,-0.0371 l -2.87304,-2.84375 -0.0371,-0.0391 -2.87305,-2.82031 c -0.0113,-0.0113 -0.0275,-0.0199 -0.0391,-0.0312 l -2.86524,-2.79883 -0.0371,-0.0371 -2.87304,-2.76953 c -0.0113,-0.0113 -0.0199,-0.0266 -0.0312,-0.0391 l -2.87305,-2.75391 c -0.0113,-0.0113 -0.0258,-0.0199 -0.0371,-0.0312 l -2.87305,-2.73242 -0.0312,-0.0293 -2.87304,-2.710936 -0.0312,-0.03125 -2.873051,-2.695313 -0.0293,-0.0293 -2.873047,-2.673828 c -0.01134,-0.01134 -0.02761,-0.01796 -0.03906,-0.0293 l -2.865234,-2.65039 c -0.01134,-0.01134 -0.02761,-0.01991 -0.03906,-0.03125 l -2.873047,-2.628907 -0.0293,-0.0293 -2.873047,-2.613282 -0.03125,-0.03125 -2.873047,-2.599609 c -0.01134,-0.0076 -0.01758,-0.01588 -0.0293,-0.02344 l -2.873047,-2.578126 -0.0332,-0.0293 -2.873047,-2.5625 c -0.01134,-0.0076 -0.01991,-0.01588 -0.03125,-0.02344 l -2.873046,-2.546875 -0.0293,-0.0293 -2.867188,-2.523437 c -0.01134,-0.0076 -0.01758,-0.01588 -0.0293,-0.02344 l -2.873047,-2.509765 c -0.01134,-0.0076 -0.01991,-0.01393 -0.03125,-0.02148 l -2.873047,-2.496093 -0.0293,-0.03125 -2.873047,-2.47461 c -0.01134,-0.0076 -0.01991,-0.01393 -0.03125,-0.02148 l -1.69336,-1.453125 z"
         style="color:#000000;font-style:normal;font-variant:normal;font-weight:normal;font-stretch:normal;font-size:medium;line-height:normal;font-family:sans-serif;font-variant-ligatures:normal;font-variant-position:normal;font-variant-caps:normal;font-variant-numeric:normal;font-variant-alternates:normal;font-feature-settings:normal;text-indent:0;text-align:start;text-decoration:none;text-decoration-line:none;text-decoration-style:solid;text-decoration-color:#000000;letter-spacing:normal;word-spacing:normal;text-transform:none;writing-mode:lr-tb;direction:ltr;text-orientation:mixed;dominant-baseline:auto;baseline-shift:baseline;text-anchor:start;white-space:normal;shape-padding:0;clip-rule:nonzero;display:inline;overflow:visible;visibility:visible;opacity:1;isolation:auto;mix-blend-mode:normal;color-interpolation:sRGB;color-interpolation-filters:linearRGB;solid-color:#000000;solid-opacity:1;vector-effect:none;fill:#4daf4a;fill-opacity:1;fill-rule:nonzero;stroke:none;stroke-width:23.43262291;stroke-linecap:butt;stroke-linejoin:round;stroke-miterlimit:100;stroke-dasharray:none;stroke-dashoffset:0;stroke-opacity:1;color-rendering:auto;image-rendering:auto;shape-rendering:auto;text-rendering:auto;enable-background:accumulate"
         inkscape:connector-curvature="0" />
      <path
         sodipodi:nodetypes="ssssccssssssssccccccccccccccccccccccccccccccccccccccccccccccccsscsssssssscccccccccccccccccccccccccccccccccccccccccccccccccccccccccccccccccccccccccccccccccccccccccccs"
         inkscape:connector-curvature="0"
         id="path4546"
         transform="matrix(0.26458333,0,0,0.26458333,-109.72012,87.54582)"
         d="m 5.8789062,2.3828125 c -3.0307275,0 -4.5449218,1.3996971 -4.5449218,4.1972656 V 24.414062 c 0,2.797569 1.5141943,4.195313 4.5449218,4.195313 H 32.457031 V 227.23828 H 5.8789062 c -3.0307275,0 -4.5449218,1.3997 -4.5449218,4.19727 v 17.83398 c 0,2.79757 1.5141943,4.19531 4.5449218,4.19531 H 89.806641 c 3.030712,0 4.546875,-1.39774 4.546875,-4.19531 v -17.83398 c 0,-2.79757 -1.516163,-4.19727 -4.546875,-4.19727 H 62.880859 V 55.1875 38.226562 l 2.337891,2.783204 2.835938,3.421875 2.835937,3.451171 2.84375,3.480469 2.835937,3.509766 2.84375,3.546875 2.835938,3.583984 2.837891,3.613282 2.841797,3.65039 2.83789,3.689453 2.835938,3.716797 2.84375,3.761719 2.835937,3.798828 2.835937,3.835937 2.84375,3.873047 2.83594,3.917969 2.83594,3.960938 2.83593,3.998044 2.83594,4.04492 2.84375,4.09375 2.83594,4.13282 2.83789,4.1914 2.83594,4.23633 2.83593,4.28711 2.82813,4.33984 2.83594,4.39844 2.83007,4.45703 2.83594,4.51758 2.82813,4.5918 2.83008,4.65039 2.82812,4.73828 2.82031,4.81445 2.82227,4.91016 2.81445,5.00586 2.80664,5.12305 2.80664,5.25195 2.79102,5.41211 2.77734,5.61328 2.75391,5.85742 2.72656,6.21289 2.6582,6.75391 2.34766,7.20508 7.88672,30.80664 h 4.64453 6.99414 18.88281 c 3.03072,0 4.54688,-1.3997 4.54688,-4.19727 V 28.611328 h 26.92578 c 2.79758,0 4.19726,-1.399697 4.19726,-4.197266 V 6.5800781 c 0,-2.7975685 -1.39968,-4.1972656 -4.19726,-4.1972656 h -84.27539 c -2.79758,0 -4.19727,1.3996971 -4.19727,4.1972656 V 24.414062 c 0,2.797569 1.39969,4.197266 4.19727,4.197266 h 26.92578 V 190.51172 l -1.86133,-3.95899 c -0.034,-0.0722 -0.0682,-0.14341 -0.10351,-0.21484 l -2.87305,-5.79883 c -0.0302,-0.0567 -0.058,-0.1136 -0.0879,-0.16992 l -2.87305,-5.57617 c -0.0227,-0.0469 -0.0492,-0.0941 -0.0742,-0.14063 l -2.87304,-5.38281 c -0.0227,-0.042 -0.046,-0.0854 -0.0684,-0.12695 l -2.87305,-5.23438 c -0.0189,-0.0378 -0.0388,-0.0747 -0.0586,-0.11132 l -2.87305,-5.10938 c -0.0189,-0.0302 -0.0348,-0.0655 -0.0527,-0.0977 l -2.87305,-4.99804 c -0.0189,-0.0265 -0.0328,-0.0548 -0.0508,-0.082 L 170.5,148.60742 c -0.0151,-0.0264 -0.0308,-0.0529 -0.0449,-0.0801 l -2.87305,-4.81445 c -0.0151,-0.0265 -0.0308,-0.0493 -0.0449,-0.0742 l -2.87305,-4.73047 c -0.0151,-0.0227 -0.0308,-0.0461 -0.0449,-0.0684 l -2.87305,-4.6582 c -0.0151,-0.0227 -0.0308,-0.0437 -0.0449,-0.0664 l -2.87305,-4.58398 c -0.0113,-0.0227 -0.0257,-0.0437 -0.0371,-0.0664 l -2.87305,-4.51757 c -0.0113,-0.0227 -0.0276,-0.0441 -0.0391,-0.0664 l -2.87305,-4.45703 c -0.0113,-0.0189 -0.0257,-0.0405 -0.0371,-0.0605 l -2.87305,-4.39844 c -0.0113,-0.0189 -0.0276,-0.0386 -0.0391,-0.0586 l -2.87305,-4.34766 c -0.0113,-0.0189 -0.0257,-0.033 -0.0371,-0.0508 l -2.87304,-4.29492 c -0.0113,-0.0189 -0.0276,-0.0346 -0.0391,-0.0527 l -2.87305,-4.23633 c -0.0113,-0.0189 -0.0257,-0.033 -0.0371,-0.0508 l -2.87305,-4.191409 c -0.0113,-0.0189 -0.0276,-0.03497 -0.0391,-0.05273 l -2.87305,-4.146484 c -0.0113,-0.01512 -0.0257,-0.03094 -0.0371,-0.04492 l -2.86523,-4.101562 c -0.0113,-0.01512 -0.0276,-0.03094 -0.0391,-0.04492 l -2.87305,-4.050782 c -0.0113,-0.0189 -0.0257,-0.03302 -0.0371,-0.05078 l -2.87305,-4.005859 c -0.0113,-0.01512 -0.0199,-0.03094 -0.0312,-0.04492 l -2.87304,-3.96875 c -0.0113,-0.01512 -0.0257,-0.03094 -0.0371,-0.04492 L 121,74.201172 c -0.0113,-0.01512 -0.0276,-0.03094 -0.0391,-0.04492 l -2.87305,-3.888672 c -0.0113,-0.01512 -0.018,-0.02898 -0.0293,-0.04297 l -2.875,-3.84375 c -0.0113,-0.01512 -0.0256,-0.03094 -0.0371,-0.04492 l -2.87304,-3.804688 c -0.0113,-0.01512 -0.0199,-0.03094 -0.0312,-0.04492 l -2.87305,-3.761719 c -0.0113,-0.01512 -0.0257,-0.03094 -0.0371,-0.04492 l -2.87305,-3.732422 c -0.0113,-0.01512 -0.0199,-0.02898 -0.0312,-0.04297 l -2.87304,-3.695313 c -0.0113,-0.01512 -0.0257,-0.03094 -0.0371,-0.04492 l -2.87305,-3.658203 c -0.0113,-0.01134 -0.0199,-0.02577 -0.0312,-0.03711 l -2.873046,-3.628906 -0.03711,-0.03711 -2.873047,-3.591796 c -0.01134,-0.01512 -0.01991,-0.03079 -0.03125,-0.04492 l -2.873047,-3.554688 -0.03711,-0.03711 -2.873047,-3.525391 c -0.01134,-0.01512 -0.01991,-0.03079 -0.03125,-0.04492 l -2.873047,-3.488281 -0.03711,-0.03711 -2.873047,-3.458985 c -0.01134,-0.01512 -0.01991,-0.02883 -0.03125,-0.04297 l -2.873047,-3.429687 -0.03711,-0.03711 -2.867188,-3.398438 -0.03711,-0.03906 -2.873047,-3.361328 c -0.01134,-0.01512 -0.01991,-0.03079 -0.03125,-0.04492 L 71.57826,12.333993 71.54115,12.296883 68.668103,8.9863361 c -0.01134,-0.011339 -0.01991,-0.02761 -0.03125,-0.039063 L 65.763672,5.6679688 65.726562,5.6289062 C 64.777741,4.5476854 63.825668,3.4652636 62.880859,2.3828125 Z"
         style="color:#000000;font-style:normal;font-variant:normal;font-weight:normal;font-stretch:normal;font-size:medium;line-height:normal;font-family:sans-serif;font-variant-ligatures:normal;font-variant-position:normal;font-variant-caps:normal;font-variant-numeric:normal;font-variant-alternates:normal;font-feature-settings:normal;text-indent:0;text-align:start;text-decoration:none;text-decoration-line:none;text-decoration-style:solid;text-decoration-color:#000000;letter-spacing:normal;word-spacing:normal;text-transform:none;writing-mode:lr-tb;direction:ltr;text-orientation:mixed;dominant-baseline:auto;baseline-shift:baseline;text-anchor:start;white-space:normal;shape-padding:0;clip-rule:nonzero;display:inline;overflow:visible;visibility:visible;opacity:1;isolation:auto;mix-blend-mode:normal;color-interpolation:sRGB;color-interpolation-filters:linearRGB;solid-color:#000000;solid-opacity:1;vector-effect:none;fill:#212121;fill-opacity:1;fill-rule:nonzero;stroke:none;stroke-width:23.43262291;stroke-linecap:butt;stroke-linejoin:round;stroke-miterlimit:100;stroke-dasharray:none;stroke-dashoffset:0;stroke-opacity:1;color-rendering:auto;image-rendering:auto;shape-rendering:auto;text-rendering:auto;enable-background:accumulate" />
    </g>
  </g>
</svg>
